<svg xmlns="http://www.w3.org/2000/svg" viewBox="0 0 31.21 31.21"><defs><style>.cls-1{fill:#fff;}</style></defs><title>Asset 64</title><g id="Layer_2" data-name="Layer 2"><g id="Layer_1-2" data-name="Layer 1"><g id="_Group_" data-name="&lt;Group&gt;"><path id="_Compound_Path_" data-name="&lt;Compound Path&gt;" class="cls-1" d="M23,0H8.23A8.34,8.34,0,0,0,0,8.4V22.81a8.34,8.34,0,0,0,8.23,8.4H23a8.34,8.34,0,0,0,8.23-8.4V8.4A8.34,8.34,0,0,0,23,0Zm5.44,22.6a5.78,5.78,0,0,1-5.7,5.82H8.49a5.78,5.78,0,0,1-5.7-5.82v-14a5.78,5.78,0,0,1,5.7-5.82H22.72a5.78,5.78,0,0,1,5.7,5.82Z"/><path id="_Compound_Path_2" data-name="&lt;Compound Path&gt;" class="cls-1" d="M15.6,7.59a7.93,7.93,0,0,0-7.84,8,7.93,7.93,0,0,0,7.84,8,7.93,7.93,0,0,0,7.85-8A7.93,7.93,0,0,0,15.6,7.59Zm0,13.19a5.17,5.17,0,1,1,5.06-5.17A5.12,5.12,0,0,1,15.6,20.78Z"/><ellipse id="_Path_" data-name="&lt;Path&gt;" class="cls-1" cx="23.87" cy="7.16" rx="1.77" ry="1.81"/></g></g></g></svg>