<svg xmlns="http://www.w3.org/2000/svg" viewBox="0 0 28.77 23.98"><defs><style>.cls-1{fill:#fff;}</style></defs><title>Asset 66</title><g id="Layer_2" data-name="Layer 2"><g id="Layer_1-2" data-name="Layer 1"><path id="Twitter" class="cls-1" d="M28,.44a11.43,11.43,0,0,1-3.75,1.47A5.82,5.82,0,0,0,19.92,0,6,6,0,0,0,14,6.05a6.21,6.21,0,0,0,.15,1.38A16.63,16.63,0,0,1,2,1.1,6.17,6.17,0,0,0,3.83,9.19a5.75,5.75,0,0,1-2.67-.76v.08a6,6,0,0,0,4.73,5.93,5.28,5.28,0,0,1-1.55.22,5.8,5.8,0,0,1-1.11-.11,5.93,5.93,0,0,0,5.51,4.2,11.63,11.63,0,0,1-7.33,2.59A10.9,10.9,0,0,1,0,21.26,16.4,16.4,0,0,0,9.05,24c10.86,0,16.79-9.22,16.79-17.22,0-.27,0-.53,0-.79a12.17,12.17,0,0,0,2.94-3.13,11.3,11.3,0,0,1-3.39,1A6,6,0,0,0,28,.44Z"/></g></g></svg>