<svg xmlns="http://www.w3.org/2000/svg" viewBox="0 0 30.66 29.9"><defs><style>.cls-1{fill:#fff;fill-rule:evenodd;}</style></defs><title>Asset 67</title><g id="Layer_2" data-name="Layer 2"><g id="Layer_1-2" data-name="Layer 1"><path class="cls-1" d="M15.33,0a15.33,15.33,0,0,0-4.85,29.87c.77.14,1-.33,1-.74s0-1.32,0-2.6c-4.27.92-5.16-2.06-5.16-2.06a4.05,4.05,0,0,0-1.71-2.24c-1.39-.95.11-.93.11-.93A3.23,3.23,0,0,1,7.1,22.88a3.26,3.26,0,0,0,4.46,1.27,3.29,3.29,0,0,1,1-2c-3.4-.38-7-1.7-7-7.57a6,6,0,0,1,1.58-4.12,5.44,5.44,0,0,1,.15-4S8.56,6,11.49,7.93a14.44,14.44,0,0,1,7.68,0c2.92-2,4.21-1.57,4.21-1.57a5.5,5.5,0,0,1,.15,4.05,6,6,0,0,1,1.58,4.12c0,5.89-3.59,7.18-7,7.56a3.66,3.66,0,0,1,1,2.84c0,2.05,0,3.7,0,4.2s.28.89,1.05.74A15.33,15.33,0,0,0,15.33,0Z"/></g></g></svg>