<svg xmlns="http://www.w3.org/2000/svg" viewBox="0 0 1283.37 809.8" preserveAspectRatio="xMaxYMax slice"><defs><style>.cls-1{fill:#ffb700;opacity:0.65;}.cls-2{fill:#0062ff;}.cls-3{fill:#c0d8ff;opacity:0.8;}.cls-4{fill:#ffdc68;}.cls-5{fill:#0d1f95;}.cls-6{fill:#3c87ff;}.cls-7{fill:#072ab1;opacity:0.2;}</style></defs><title>knowledge-bombsAsset 1</title><g id="Layer_2" data-name="Layer 2"><g id="Layer_1-2" data-name="Layer 1"><polygon class="cls-1" points="26.4 0 26.4 0.47 26.4 139.23 26.4 157.52 26.4 157.52 0 157.52 0 175.34 43.11 175.34 43.11 9.18 26.4 0"/><path class="cls-1" d="M696.63,648.17a41,41,0,0,0,41,41V607.15A41,41,0,0,0,696.63,648.17Z"/><line class="cls-2" x1="1193.03" y1="386.01" x2="1193.03" y2="385.95"/><polyline class="cls-3" points="453.86 505.48 453.7 369.3 443 369.3 443 505.69"/><polygon class="cls-4" points="1258.24 292.8 1225.34 262.54 1180.64 311.02 1258.24 292.8"/><polyline class="cls-1" points="161.39 745.13 161.39 709.38 161.39 624.37 128.83 624.37 128.98 745.13"/><line class="cls-5" x1="164.99" y1="763.14" x2="164.99" y2="763.12"/><path class="cls-4" d="M1269.1,781.2c-3.93-1.7-5.18-2.54-5.85-3.93a3.75,3.75,0,0,1-.43-1.9c0-2.67,2-4.28,5-4.07a5.71,5.71,0,0,1,4.74,2.85c.44.65.82,1.06.92,1,2.66-1.65,7-4.6,7-4.73a16.49,16.49,0,0,0-2.42-3.24,12.57,12.57,0,0,0-6.32-3.64,25.88,25.88,0,0,0-7.66-.23c-5.49,1.05-9.29,4.56-10.36,9.59a20.23,20.23,0,0,0,.17,6.45,13.3,13.3,0,0,0,2.78,5c2,2.22,4.3,3.61,9.51,5.86,4.55,2,6.16,2.91,6.94,4a4.36,4.36,0,0,1-.56,5.59c-2.18,2-6.61,2.2-9.83.5a13.52,13.52,0,0,1-3.83-3.67l-.61-.9-2.91,1.69-3.75,2.16a8.63,8.63,0,0,0-.93.59,17.84,17.84,0,0,0,2.63,3.9,18.54,18.54,0,0,0,10.28,5.36,31.56,31.56,0,0,0,7.7.08c5.6-1,9.57-3.8,11.18-8a14.64,14.64,0,0,0-1.17-12.31C1279.43,786.36,1276.34,784.31,1269.1,781.2Z"/><path class="cls-6" d="M1279.39,68.45c-.12-.15-19.52-.23-43.05-.19l-40.3.11h-3v20h.3v0h31.89V179h22.55V88.4h31.89V78.56A98.71,98.71,0,0,0,1279.39,68.45Z"/><polygon class="cls-7" points="872.41 130.66 826.08 104.39 826.08 130.66 872.41 130.66"/></g></g></svg>
