<?xml version="1.0" encoding="UTF-8" standalone="no"?>
<svg width="93px" height="30px" viewBox="0 0 93 30" version="1.1" xmlns="http://www.w3.org/2000/svg" xmlns:xlink="http://www.w3.org/1999/xlink">
    <g id="Page-1" stroke="none" stroke-width="1" fill="none" fill-rule="evenodd">
        <g id="centra-white-small" fill="#FFFFFF">
            <g id="Layer_1">
                <g id="Group">
                    <ellipse id="Oval" cx="3.33224756" cy="26.2933843" rx="3.1504886" ry="3.15399304"></ellipse>
                    <g transform="translate(5.149837, 0.000000)" id="Shape">
                        <path d="M8.60325733,20.8042233 C10.6934853,20.8042233 12.2990228,19.4091879 12.8745928,18.0141525 L15.6009772,19.7731102 C14.2074919,22.2295855 11.7234528,23.9582163 8.42149837,23.9582163 C4.02899023,23.9582163 0.0302931596,20.4706279 0.0302931596,15.3757161 C0.0302931596,10.3111311 4.02899023,6.79321577 8.42149837,6.79321577 C11.7537459,6.79321577 14.2074919,8.55217342 15.570684,11.0086488 L12.8442997,12.7676064 C12.2990228,11.372571 10.7237785,9.97753566 8.60325733,9.97753566 C5.27100977,9.97753566 3.4534202,12.434011 3.4534202,15.4060429 C3.4534202,18.3780748 5.27100977,20.8042233 8.60325733,20.8042233 L8.60325733,20.8042233 Z"></path>
                        <path d="M19.5996743,16.2551949 C19.5996743,18.7116702 21.3566775,20.8042233 24.3254072,20.8042233 C26.4156352,20.8042233 27.8697068,19.7427833 28.3846906,18.347748 L31.323127,19.7427833 C29.9296417,22.1992587 27.4758958,23.9582163 24.1436482,23.9582163 C19.7814332,23.9582163 16.0856678,20.4706279 16.0856678,15.3757161 C16.0856678,10.3111311 19.5693811,6.79321577 24.1436482,6.79321577 C28.3543974,6.79321577 31.8381107,10.1291699 31.8381107,15.1937549 L31.4745928,16.2551949 L19.5996743,16.2551949 L19.5996743,16.2551949 Z M19.7814332,13.1921824 L28.1726384,13.1921824 C27.9908795,11.372571 26.2338762,9.97753566 24.1436482,9.97753566 C21.6899023,9.97753566 20.2964169,11.372571 19.7814332,13.1921824 L19.7814332,13.1921824 Z"></path>
                        <path d="M33.776873,7.15713804 L36.9273616,7.15713804 L37.2908795,8.55217342 L37.4726384,8.73413456 L37.6543974,8.55217342 C38.3511401,7.49073346 40.1081433,6.79321577 41.5016287,6.79321577 C45.7123779,6.79321577 48.1358306,9.58328653 48.1358306,13.4347973 L48.1358306,23.5942941 L44.6521173,23.5942941 L44.6521173,13.4651241 C44.5612378,11.2209368 43.470684,9.97753566 41.1684039,9.97753566 C39.1084691,9.97753566 37.381759,11.6455127 37.3211726,13.6774121 L37.3211726,23.6246209 L33.8374593,23.6246209 L33.8374593,7.15713804 L33.776873,7.15713804 Z"></path>
                        <path d="M48.9840391,7.15713804 L52.1648208,7.15713804 L52.1648208,3.66954959 L54.9214984,0.181961137 L55.5879479,0.181961137 L55.5879479,7.1874649 L59.1322476,7.1874649 L59.1322476,10.3111311 L55.5879479,10.3111311 L55.5879479,18.7116702 C55.5879479,19.7731102 56.3149837,20.4706279 57.3752443,20.4706279 L59.4654723,20.1067056 L59.4654723,23.2606986 L57.5267101,23.6246209 C54.0429967,23.6246209 52.1345277,21.8656633 52.1345277,18.7116702 L52.1345277,10.3111311 L48.9537459,10.3111311 L48.9537459,7.15713804 L48.9840391,7.15713804 Z"></path>
                        <path d="M61.5859935,7.15713804 L64.7364821,7.15713804 L65.1,8.9160957 L65.281759,9.09805683 L65.4635179,8.9160957 C66.5237785,7.52106032 67.9172638,6.82354263 69.3107492,6.82354263 C70.0074919,6.82354263 70.3710098,6.82354263 71.0677524,7.1874649 L71.0677524,10.3111311 L68.9775244,10.3111311 C66.9175896,10.3111311 65.1908795,11.9791082 65.1302932,14.0110075 L65.1302932,23.5942941 L61.6465798,23.5942941 L61.6465798,7.15713804 L61.5859935,7.15713804 Z"></path>
                        <path d="M87.4563518,23.6246209 L84.3058632,23.6246209 L83.9423453,22.2295855 L83.7605863,22.0476244 L83.5788274,22.2295855 C82.5185668,23.2910255 80.7918567,23.9885432 79.0348534,23.9885432 C74.4908795,23.9885432 70.6436482,20.5009547 70.6436482,15.4060429 C70.6436482,10.3414579 74.4908795,6.82354263 79.0348534,6.82354263 C80.7918567,6.82354263 82.5185668,7.52106032 83.5788274,8.58250028 L83.7605863,8.76446142 L83.9423453,8.58250028 L84.3058632,7.1874649 L87.4563518,7.1874649 L87.4563518,23.6246209 L87.4563518,23.6246209 Z M79.2469055,9.97753566 C75.914658,9.97753566 74.1273616,12.434011 74.1273616,15.4060429 C74.1273616,18.3780748 75.914658,20.8345502 79.2469055,20.8345502 C82.2156352,20.8345502 84.3058632,18.3780748 84.3058632,15.4060429 C84.3058632,12.4036842 82.2156352,9.97753566 79.2469055,9.97753566 L79.2469055,9.97753566 Z"></path>
                    </g>
                </g>
            </g>
        </g>
    </g>
</svg>
