<svg width="148" height="53" viewBox="0 0 148 53" version="1.1"
  xmlns="http://www.w3.org/2000/svg"
  xmlns:xlink="http://www.w3.org/1999/xlink">
  <g id="Canvas" transform="translate(-11072 11752)">
    <g id="Vector">
      <use xlink:href="#path0_fill" transform="translate(11072 -11752)" fill="#FFFFFF"/>
    </g>
  </g>
  <defs>
    <path id="path0_fill" d="M 108.208 13.1813C 109.325 15.9275 111.838 17.987 114.77 17.987L 117.842 17.987C 120.355 14.6917 124.404 12.6321 128.872 12.6321C 131.664 12.6321 133.898 13.456 135.853 14.829L 135.853 0.411917L 142.834 0.411917L 142.834 28.6969C 142.834 31.8549 145.068 33.228 148 33.228L 148 40.2306C 142.694 40.2306 140.181 39.6814 137.668 36.386C 135.434 38.7202 132.362 40.2306 128.732 40.2306C 121.332 40.2306 114.909 34.0518 114.909 26.5C 114.909 25.6762 115.049 24.9896 115.049 24.3031L 114.491 24.3031C 112.257 24.3031 110.023 23.8912 108.208 22.2435L 108.208 39.544L 101.087 39.544L 101.087 13.1813L 108.208 13.1813ZM 58.3623 41.8782C 59.0604 44.487 61.2943 46.272 64.5057 46.272C 68.4151 46.272 71.4868 43.6632 71.4868 39.6813L 71.4868 37.7591C 69.5321 39.2694 67.4377 39.956 64.9245 39.956C 57.3849 39.956 50.9623 33.7772 50.9623 26.2254C 50.9623 18.6736 57.2453 12.6321 64.6453 12.6321C 67.4377 12.6321 69.5321 13.456 71.9057 15.2409L 71.9057 13.1813L 78.6075 13.1813L 78.6075 39.6813C 78.6075 47.6451 72.7434 53 64.5057 53C 56.6868 53 51.8 48.1943 50.683 41.8782L 58.3623 41.8782ZM 40.7698 26.3627C 40.7698 21.6943 39.0943 19.6347 35.3245 19.6347C 30.5774 19.6347 28.7623 22.9301 28.7623 26.7746L 28.7623 39.544L 21.7811 39.544L 21.7811 13.1813L 28.0642 13.1813L 28.483 15.5155C 30.8566 13.5933 33.5094 12.4948 36.8604 12.4948C 43.9811 12.4948 47.8906 17.1632 47.8906 26.3627L 47.8906 39.544L 40.9094 39.544L 40.9094 26.3627L 40.7698 26.3627ZM 17.3132 13.1813L 17.3132 39.544L 10.1925 39.544L 10.1925 22.2435C 8.37736 23.8912 6.1434 24.3031 3.90943 24.3031L 0 24.3031L 0 17.8497L 3.63019 17.8497C 6.56226 17.8497 9.07547 15.9275 10.1925 13.044L 17.3132 13.044L 17.3132 13.1813ZM 89.6377 13.1813L 89.6377 16.2021C 91.5924 14.1425 94.2453 13.1813 97.1774 13.1813L 98.7132 13.1813L 98.5736 20.4585C 97.8755 20.3212 97.0377 20.3212 96.3396 20.3212C 92.0113 20.3212 89.917 23.342 89.917 26.7746L 89.917 39.544L 82.9359 39.544L 82.9359 13.1813L 89.6377 13.1813ZM 122.309 26.3627C 122.309 30.07 125.381 33.0907 129.151 33.0907C 132.921 33.0907 135.992 30.07 135.992 26.3627C 135.992 22.6554 132.921 19.6347 129.151 19.6347C 125.381 19.6347 122.309 22.6554 122.309 26.3627ZM 58.2226 26.2254C 58.2226 29.7953 61.2943 32.8161 64.9245 32.8161C 68.4151 32.8161 71.4868 30.07 71.4868 26.2254C 71.4868 22.5181 68.4151 19.6347 64.9245 19.6347C 61.2943 19.6347 58.2226 22.5181 58.2226 26.2254ZM 8.6566 5.08031C 8.6566 2.3342 11.0302 0 13.8226 0C 16.6151 0 18.9887 2.3342 18.9887 5.08031C 18.9887 7.82643 16.6151 10.1606 13.8226 10.1606C 11.0302 10.0233 8.6566 7.68912 8.6566 5.08031ZM 109.883 5.08031C 109.883 7.82643 107.509 10.1606 104.717 10.1606C 101.925 10.1606 99.5509 7.82643 99.5509 5.08031C 99.5509 2.3342 101.925 0 104.717 0C 107.509 0 109.883 2.3342 109.883 5.08031Z"/>
  </defs>
</svg>
