<?xml version="1.0" standalone="no"?>
<!DOCTYPE svg PUBLIC "-//W3C//DTD SVG 20010904//EN"
 "http://www.w3.org/TR/2001/REC-SVG-20010904/DTD/svg10.dtd">
<svg version="1.0" xmlns="http://www.w3.org/2000/svg"
 width="450.000000pt" height="450.000000pt" viewBox="0 0 450.000000 450.000000"
 preserveAspectRatio="xMidYMid meet">
<metadata>
Created by potrace 1.11, written by Peter Selinger 2001-2013
</metadata>
<g transform="translate(0.000000,450.000000) scale(0.100000,-0.100000)"
fill="#000000" stroke="none">
<path d="M0 2250 l0 -2250 2250 0 2250 0 0 2250 0 2250 -2250 0 -2250 0 0
-2250z m3612 175 c116 -24 193 -68 283 -159 44 -45 88 -96 98 -113 l18 -32
-152 -101 c-83 -55 -155 -100 -160 -100 -4 0 -13 9 -19 21 -22 39 -84 100
-124 122 -56 29 -183 31 -239 3 -78 -39 -116 -144 -83 -231 28 -73 85 -113
289 -205 308 -139 434 -221 513 -337 55 -81 82 -155 95 -266 32 -255 -79 -463
-303 -571 -140 -67 -204 -80 -388 -79 -123 1 -171 6 -235 22 -115 30 -269 110
-343 177 -59 53 -162 186 -162 209 0 6 73 53 162 104 l162 94 20 -29 c44 -62
148 -156 200 -180 120 -55 255 -56 364 -3 130 63 160 205 65 310 -37 41 -65
56 -405 217 -69 33 -153 78 -185 100 -128 87 -232 238 -253 367 -34 209 15
381 145 510 117 116 247 164 445 164 72 0 154 -5 192 -14z m-1052 -48 c0 -24
3 -105 7 -180 l6 -137 -296 0 -297 0 0 -830 0 -830 -200 0 -200 0 0 830 0 830
-295 0 -295 0 0 180 0 180 785 0 785 0 0 -43z"/>
</g>
</svg>
