<svg
  xmlns="http://www.w3.org/2000/svg" viewBox="0 0 1307.56 830.84">
  <defs>
    <style>
      .abg-cls-2{fill:none;stroke:#fff;stroke-miterlimit:10;stroke-width:2.73px}
      .abg-cls-4{fill:#0062ff;opacity:.65}
      .abg-cls-5{fill:#ffdc68}
      .abg-cls-7{fill:#e0ecff;opacity:.9}
    </style>
  </defs>
  <g id="Layer_2" data-name="Layer 2">
    <g id="Layer_1-2" data-name="Layer 1">
      <path class="abg-cls-2" d="M326.79 342.95h6.3"/>
      <path stroke-dasharray="12.86 12.86" fill="none" stroke="#fff" stroke-miterlimit="10" stroke-width="2.73" d="M345.96 342.95h96.47"/>
      <path class="abg-cls-2" d="M448.87 342.95h6.29"/>
      <path class="abg-cls-4" d="M426.09 627.2a41 41 0 0 0 41 41v-82.02a41 41 0 0 0-41 41.02z"/>
      <!-- <path class="abg-cls-5" d="M910.09 12.89v157.53h-26.4v17.81h43.11V22.07l-16.71-9.18z"/> -->
      <path fill="#0062ff" d="M1235.29 381.25v-.05"/>
      <!-- <path class="abg-cls-7" d="M10.86 136.18L10.69 0H0v136.39"/> -->
      <path class="abg-cls-4" d="M859.85 318.61l-46.33-26.27v26.27h46.33z"/>
      <path opacity=".9" fill="#ffdc68" d="M92.78 357.32l17.17 41.28 60.92-25.24-78.09-16.04z"/>
      <path class="abg-cls-4" d="M1027.88 830.84V711.25h-32.24l.14 119.59"/>
      <path fill="#0d1f95" d="M207.25 758.38v-.01"/>
      <path class="abg-cls-5" d="M645.56 736.21c-3.93-1.7-5.18-2.53-5.85-3.93a3.69 3.69 0 0 1-.43-1.89c0-2.68 2-4.28 5-4.07a5.71 5.71 0 0 1 4.74 2.85c.44.64.82 1.06.92 1 2.66-1.66 7-4.61 7-4.74a16.79 16.79 0 0 0-2.42-3.24 12.64 12.64 0 0 0-6.32-3.64 25.55 25.55 0 0 0-7.66-.22c-5.49 1-9.29 4.55-10.36 9.59a20.24 20.24 0 0 0 .17 6.45 13.37 13.37 0 0 0 2.78 5c2.05 2.21 4.29 3.61 9.51 5.85 4.55 2 6.15 2.92 6.94 4a4.41 4.41 0 0 1-.56 5.6c-2.18 2-6.61 2.2-9.83.5a13.8 13.8 0 0 1-3.83-3.67l-.61-.9-2.91 1.68-3.75 2.17a8.63 8.63 0 0 0-.93.59 18.09 18.09 0 0 0 2.63 3.9 18.53 18.53 0 0 0 10.28 5.35 30.59 30.59 0 0 0 7.7.08c5.6-.94 9.57-3.8 11.18-8a14.7 14.7 0 0 0-1.17-12.32c-1.89-2.82-4.98-4.88-12.22-7.99z"/>
      <path class="abg-cls-7" d="M1256.8 170.08c-.12-.16-19.52-.23-43-.2l-40.3.11h-3v20h32.19v90.6h22.56V190h31.88v-9.84a98.56 98.56 0 0 0-.33-10.08z"/>
    </g>
  </g>
</svg>
