<svg xmlns="http://www.w3.org/2000/svg" viewBox="0 0 262.01 307.61" isolation="isolate">
    <defs>
        <style>
            .blend-mode{mix-blend-mode:multiply;}
        </style>
    </defs>
    <title>
        logo
    </title>
    <g class="cls-1">
        <g id="Layer_2" data-name="Layer 2">
            <g id="Layer_1-2" data-name="Layer 1">
                <polygon points="262.01 307.61 212.84 307.61 212.84 91.1 262.01 118.1 262.01 307.61" fill="#ffc400" opacity="0.65"/>
                <rect width="242.95" height="242.95" y="44.33" fill="#0062ff"/>
                <polygon points="242.95 287.29 84.44 286.91 84.44 18.28 242.95 108.17 242.95 287.29" class="blend-mode" fill="#0062ff" opacity="0.65" mix-blend-mode="multiply"/>
                <path d="M243,266.42c-3.35-3-75.42-41.25-158.5-51.33V17.34L19,0l.36,286.91,223.6.37Z" fill="#072ab1"/>
                <path d="M189.6,198.88c-9.45-4.08-12.46-6.09-14.08-9.45a8.91,8.91,0,0,1-1-4.55c0-6.44,4.71-10.29,12.07-9.79,5,.35,8.29,2.31,11.42,6.86,1,1.55,2,2.55,2.2,2.39,6.4-4,17-11.06,16.89-11.37-.27-1-3.59-5.4-5.83-7.79A30.25,30.25,0,0,0,196,156.42c-4.2-1-14.15-1.35-18.43-.54-13.19,2.51-22.33,11-24.92,23.07-.73,3.47-.5,12.07.43,15.5a32.2,32.2,0,0,0,6.67,12.15c4.94,5.32,10.33,8.67,22.87,14.07,11,4.75,14.81,7,16.7,9.72A10.57,10.57,0,0,1,198,243.85c-5.25,4.7-15.89,5.28-23.64,1.19-2.7-1.42-7.18-5.7-9.22-8.83l-1.47-2.16-7,4c-3.85,2.24-7.94,4.59-9,5.21a17,17,0,0,0-2.24,1.43c-.27.46,4.09,6.9,6.33,9.37,5.71,6.32,15,11.14,24.72,12.88a74.6,74.6,0,0,0,18.51.19c13.46-2.28,23-9.14,26.88-19.24,3.51-9.3,2.35-21.79-2.82-29.62C214.43,211.3,207,206.36,189.6,198.88Z" fill="#fff"/>
                <path d="M139,156.78c-.11-.15-19.36-.23-42.69-.19l-40,.11h-3v19.85h.3v0H85.27v89.85h22.37V176.57h31.62v-9.76A93.92,93.92,0,0,0,139,156.78Z" fill="#fff"/>
            </g>
        </g>
    </g>
</svg>
